<svg fill="currentColor" height="1em" style="flex:none;line-height:1" viewBox="1.5 -6 52 52" width="1em" xmlns="http://www.w3.org/2000/svg"><title>Prime Agent</title><path d="M36.7084 18.2266C36.656 18.2284 36.5914 18.2306 36.5071 18.2306L36.5023 18.2239C36.2652 18.2777 35.9705 18.2583 35.6691 18.2385C34.7753 18.1798 33.822 18.1172 34.138 19.9454C34.2085 20.3481 33.7202 20.4471 33.3964 20.4638C32.477 20.5142 31.5544 20.5343 30.6331 20.5159C30.4587 20.513 30.2804 20.3662 30.1194 20.2336C30.0917 20.2107 30.0642 20.1882 30.0375 20.1669C30.0089 20.1434 30.1162 19.8397 30.1718 19.8363C31.0704 19.7839 31.3963 19.1745 31.7212 18.5669C31.8849 18.2612 32.0482 17.9559 32.284 17.7223C34.4183 15.6065 36.5978 13.5311 39.091 11.8264C39.3342 11.6603 39.6313 11.5076 39.8326 11.7962C39.9877 12.0192 39.8425 12.1455 39.6935 12.2751C39.6284 12.3319 39.5625 12.3892 39.5205 12.4556C39.37 12.6945 39.1028 12.8705 38.8374 13.0456C38.3157 13.3894 37.7997 13.7295 38.1833 14.5344C38.516 15.2313 38.2183 15.355 37.7607 15.545L37.742 15.5528C37.5464 15.6349 37.3459 15.7094 37.1459 15.7839C36.7198 15.9424 36.2946 16.1008 35.9133 16.3314C35.5308 16.5629 35.3479 17.0142 35.9737 17.281C37.3411 17.8632 40.8813 16.9337 41.5724 15.6518C42.2185 14.4524 43.1838 13.5628 44.1484 12.6738C44.6898 12.175 45.2309 11.6764 45.7152 11.1234C46.7595 9.93206 47.9822 8.89721 49.2054 7.86179C49.8136 7.34709 50.422 6.83225 51.0085 6.29797C51.4498 5.89531 51.6327 5.36512 51.2872 4.78627C50.9431 4.21077 50.3593 4.13359 49.8106 4.26278C46.1949 5.11343 42.7017 6.26108 39.5993 8.40365C34.6463 11.8247 29.6851 15.2341 24.6836 18.583C22.9789 19.7256 21.947 19.1669 21.3783 17.1887C20.1149 12.7962 18.2625 8.96571 12.9405 8.37009C10.9959 8.15198 9.56975 9.37008 9.85161 11.3029C9.99422 12.2828 9.86504 13.2056 9.39358 14.125C9.28963 14.328 9.18468 14.5311 9.07963 14.7344C8.35368 16.1392 7.62145 17.5561 7.16711 19.0511C7.12909 19.1761 7.08555 19.3077 7.04068 19.4434C6.63561 20.6674 6.12067 22.2233 8.57814 22.3094C8.67882 22.3128 8.87178 22.5661 8.84828 22.6601C8.7946 22.8833 8.68552 23.1483 8.51103 23.2775C6.15537 25.0141 4.21917 27.1163 3.38696 29.9603C2.96583 31.3965 3.24435 32.8881 4.47083 34.0005C5.34834 34.7958 6.46913 35.2571 7.45233 34.5878C8.34914 33.9773 9.33328 33.5677 10.3154 33.159C11.1799 32.7992 12.0428 32.4401 12.8432 31.9451C13.0361 31.8258 13.2705 31.7166 13.5076 31.6061C14.1634 31.301 14.8406 30.9854 14.7223 30.4149C14.5361 29.5208 13.5915 28.6919 12.8046 28.0408C12.0244 27.395 10.0362 23.0577 10.2727 22.0158C10.604 20.5567 11.3499 19.2935 12.0965 18.029C12.7338 16.9495 13.3716 15.8691 13.7526 14.6653C13.9103 14.1686 14.5143 13.8968 15.0965 14.0948C15.4916 14.2287 15.4244 14.5914 15.3617 14.9293C15.36 14.9386 15.3583 14.9479 15.3566 14.9572C15.1205 16.2559 14.889 17.5562 14.6574 18.8564C14.5416 19.5064 14.4259 20.1563 14.3096 20.8061C14.2358 21.2222 14.3649 21.5544 14.7961 21.6383C15.6267 21.801 15.6082 22.1752 15.2341 22.8178C14.8364 23.499 14.7811 24.3312 15.2257 24.9604C15.672 25.5929 16.4186 25.7255 17.177 25.3463C17.6501 25.1114 18.0176 25.3211 18.0125 25.7976C17.9823 28.343 19.0477 27.769 20.3447 26.6584C20.464 26.5561 20.6265 26.4995 20.7835 26.4449C20.812 26.435 20.8404 26.4251 20.8682 26.4151C20.9912 26.3712 21.1144 26.3275 21.2376 26.2838C23.6789 25.4175 26.1172 24.5524 27.4955 22.0527C27.602 21.8575 27.9514 21.7629 28.2235 21.6893C28.2389 21.6851 28.2542 21.681 28.2691 21.6769C29.8453 21.2486 31.4545 21.2422 33.0627 21.2358C34.2705 21.231 35.4774 21.2262 36.6699 21.0427C37.8462 20.8615 39.1278 20.1752 39.138 19.0394C39.1473 18.1236 38.4463 18.1805 37.746 18.2373C37.443 18.262 37.14 18.2865 36.8947 18.2323C36.845 18.222 36.7927 18.2238 36.7084 18.2266Z"/><path d="M18.1822 31.05C17.8903 32.9929 18.6319 34.6556 21.6671 34.634H21.6654C24.2576 34.5282 27.1906 32.9593 30.0561 30.9528C31.9486 29.6273 33.5846 28.2295 34.645 26.1642C35.4253 24.6458 35.0241 23.4277 33.8481 22.3623C33.3296 21.8925 32.8347 21.8405 32.2541 22.4076C30.1936 24.4243 27.6284 25.525 24.9942 26.6323C24.3229 26.9147 23.5584 27.0557 22.7884 27.1977C20.7369 27.576 18.647 27.9612 18.1822 31.05Z"/></svg>
